<svg width="470" height="141" viewBox="0 0 470 141" fill="none" xmlns="http://www.w3.org/2000/svg">
<path opacity="0.5" d="M0.5 33C0.5 15.0507 15.0507 0.5 33 0.5H427.417C438.274 0.5 447.076 9.30198 447.076 20.1598V46.4301C447.076 50.8145 451.844 53.5361 455.619 51.3069L466.576 44.8374C468.05 43.967 469.695 45.6699 468.777 47.1126C468.776 47.1137 468.775 47.1148 468.774 47.1159L452.721 71.1454C449.041 76.6541 447.076 83.1302 447.076 89.7551V108C447.076 125.949 432.526 140.5 414.576 140.5H33C15.0508 140.5 0.5 125.949 0.5 108V33Z" fill="url(#paint0_linear_857_3771)" stroke="#E63114"/>
<defs>
<linearGradient id="paint0_linear_857_3771" x1="771.535" y1="-625.254" x2="-9.64162" y2="192.465" gradientUnits="userSpaceOnUse">
<stop stop-color="#E63114"/>
<stop offset="1" stop-color="#E63114" stop-opacity="0"/>
</linearGradient>
</defs>
</svg>
