<svg width="428" height="122" viewBox="0 0 428 122" fill="none" xmlns="http://www.w3.org/2000/svg">
<path d="M427.5 33C427.5 15.0507 412.949 0.5 395 0.5H40.4105C30.6432 0.5 22.7252 8.41799 22.7252 18.1853V39.7849C22.7252 43.9098 18.3597 46.5725 14.6921 44.6846L2.93863 38.6342C1.62759 37.9593 0.301208 39.5104 1.16843 40.7002C1.1694 40.7016 1.17041 40.7029 1.17139 40.7043L15.8155 59.8137C20.2966 65.6613 22.7252 72.8231 22.7252 80.1903V89C22.7252 106.949 37.2759 121.5 55.2252 121.5H395C412.949 121.5 427.5 106.949 427.5 89V33Z" fill="url(#paint0_linear_857_3765)" fill-opacity="0.35" stroke="#E63114"/>
<defs>
<linearGradient id="paint0_linear_857_3765" x1="-178.482" y1="230.532" x2="-144.841" y2="-48.8413" gradientUnits="userSpaceOnUse">
<stop stop-color="#8126C8" stop-opacity="0"/>
<stop offset="1" stop-color="#8A14E6" stop-opacity="0.17"/>
</linearGradient>
</defs>
</svg>
