<svg width="571" height="453" viewBox="0 0 571 453" fill="none" xmlns="http://www.w3.org/2000/svg">
<path d="M434.777 391.161L390.547 398.638V212.47L434.777 188.919V391.161Z" fill="#C72F17"/>
<path d="M405.948 242.369L399.703 244.608V230.691L405.948 228.123V242.369Z" fill="#241143"/>
<path d="M403.792 410.634L371.898 402.366V247.062L403.792 237.336V410.634Z" fill="#C72F17"/>
<path d="M521.607 371.975V244.197L472.703 262.756V359.188L521.607 371.975Z" fill="#C72F17"/>
<path d="M480.823 391.16L449.062 382.934V225.278L480.823 208.958V391.16Z" fill="#C72F17"/>
<path d="M434.781 402.603L470.352 393.38V207.212L434.781 188.92V402.603Z" fill="#E63114"/>
<path d="M403.781 410.634L435.675 402.366V247.062L403.781 237.336V410.634Z" fill="#E63114"/>
<path d="M462.516 221.714L467.744 224.015V211.269L462.516 208.691V221.714Z" fill="#241143"/>
<path d="M462.516 241.732L467.744 243.612V230.866L462.516 228.709V241.732Z" fill="#241143"/>
<path d="M462.516 261.75L467.744 263.208V250.462L462.516 248.727V261.75Z" fill="#241143"/>
<path d="M453.375 217.792L458.983 220.267V207.059L453.375 204.296V217.792Z" fill="#241143"/>
<path d="M453.375 238.548L458.983 240.562V227.353L453.375 225.053V238.548Z" fill="#241143"/>
<path d="M453.375 259.295L458.983 260.866V247.658L453.375 245.81V259.295Z" fill="#241143"/>
<path d="M439.133 211.536L445.378 214.289V200.372L439.133 197.301V211.536Z" fill="#241143"/>
<path d="M439.133 233.443L445.378 235.682V221.765L439.133 219.198V233.443Z" fill="#241143"/>
<path d="M426.526 212.81L420.281 214.792V201.779L426.526 198.564V212.81Z" fill="#241143"/>
<path d="M427.29 237.008L421.055 239.247V225.34L427.29 222.762V237.008Z" fill="#241143"/>
<path d="M405.948 222.341L399.703 224.19V212.399L405.948 209.318V222.341Z" fill="#241143"/>
<path d="M439.133 255.341L445.378 257.076V243.16L439.133 241.105V255.341Z" fill="#241143"/>
<path d="M462.516 292.172L467.744 292.983V280.237L462.516 279.148V292.172Z" fill="#241143"/>
<path d="M462.516 312.179L467.744 312.579V299.833L462.516 299.166V312.179Z" fill="#241143"/>
<path d="M462.516 332.197L467.744 332.177V319.431L462.516 319.184V332.197Z" fill="#241143"/>
<path d="M453.375 290.837L458.983 291.71V278.501L453.375 277.331V290.837Z" fill="#241143"/>
<path d="M453.375 311.584L458.983 312.015V298.807L453.375 298.088V311.584Z" fill="#241143"/>
<path d="M453.375 332.34L458.983 332.31V319.112L453.375 318.845V332.34Z" fill="#241143"/>
<path d="M439.133 288.618L445.378 289.584V275.677L439.133 274.373V288.618Z" fill="#241143"/>
<path d="M439.133 310.515L445.378 310.987V297.071L439.133 296.27V310.515Z" fill="#241143"/>
<path d="M439.133 332.412L445.378 332.381V318.464L439.133 318.167V332.412Z" fill="#241143"/>
<path d="M439.133 365.843L445.378 365.042V351.125L439.133 351.608V365.843Z" fill="#241143"/>
<path d="M439.133 387.751L445.378 386.436V372.53L439.133 373.505V387.751Z" fill="#241143"/>
<path d="M462.516 362.608L467.744 361.951V349.205L462.516 349.595V362.608Z" fill="#241143"/>
<path d="M462.516 382.626L467.744 381.548V368.802L462.516 369.613V382.626Z" fill="#241143"/>
<path d="M453.375 363.871L458.983 363.153V349.944L453.375 350.376V363.871Z" fill="#241143"/>
<path d="M453.375 384.629L458.983 383.458V370.25L453.375 371.122V384.629Z" fill="#241143"/>
<path d="M423.406 283.924L430.37 285.064V271.917L423.406 270.449V283.924Z" fill="#241143"/>
<path d="M410.117 281.85L417.729 283.093V269.35L410.117 267.748V281.85Z" fill="#241143"/>
<path d="M423.406 265.509L430.37 267.091V253.944L423.406 252.034V265.509Z" fill="#241143"/>
<path d="M410.117 262.582L417.729 264.307V250.565L410.117 248.48V262.582Z" fill="#241143"/>
<path d="M423.406 301.498L430.37 302.217V289.071L423.406 288.023V301.498Z" fill="#241143"/>
<path d="M410.117 300.234L417.729 301.015V287.272L410.117 286.132V300.234Z" fill="#241143"/>
<path d="M423.406 329.393L430.37 329.434V316.277L423.406 315.917V329.393Z" fill="#241143"/>
<path d="M410.117 329.413L417.729 329.454V315.712L410.117 315.322V329.413Z" fill="#241143"/>
<path d="M423.406 365.392L430.37 364.56V351.403L423.406 351.907V365.392Z" fill="#241143"/>
<path d="M414.57 406.228L426.393 403.229V372.53L414.57 374.255V406.228Z" fill="#241143"/>
<path d="M410.117 367.076L417.729 366.162V352.42L410.117 352.975V367.076Z" fill="#241143"/>
<path d="M423.406 346.966L430.37 346.576V333.429L423.406 333.491V346.966Z" fill="#241143"/>
<path d="M410.117 347.798L417.729 347.377V333.634L410.117 333.706V347.798Z" fill="#241143"/>
<path d="M480.836 391.16L512.596 382.934V225.278L480.836 208.958V391.16Z" fill="#E63114"/>
<path d="M507 238.024L510.729 239.657V228.893L507 227.055V238.024Z" fill="#241143"/>
<path d="M507 254.889L510.729 256.234V245.45L507 243.919V254.889Z" fill="#241143"/>
<path d="M507 271.763L510.729 272.8V262.016L507 260.783V271.763Z" fill="#241143"/>
<path d="M500.547 235.271L504.512 237.007V225.904L500.547 223.963V235.271Z" fill="#241143"/>
<path d="M500.547 252.649L504.512 254.077V242.974L500.547 241.352V252.649Z" fill="#241143"/>
<path d="M500.547 270.048L504.512 271.147V260.045L500.547 258.74V270.048Z" fill="#241143"/>
<path d="M490.656 230.916L494.97 232.816V221.221L490.656 219.095V230.916Z" fill="#241143"/>
<path d="M490.656 249.105L494.97 250.656V239.05L490.656 237.273V249.105Z" fill="#241143"/>
<path d="M490.656 267.285L494.97 268.487V256.891L490.656 255.463V267.285Z" fill="#241143"/>
<path d="M483.273 227.671L487.875 229.694V217.729L483.273 215.459V227.671Z" fill="#241143"/>
<path d="M483.273 246.446L487.875 248.11V236.134L483.273 234.244V246.446Z" fill="#241143"/>
<path d="M483.273 265.231L487.875 266.515V254.549L483.273 253.019V265.231Z" fill="#241143"/>
<path d="M507 297.389L510.729 297.964V287.19L507 286.41V297.389Z" fill="#241143"/>
<path d="M507 314.253L510.729 314.53V303.756L507 303.284V314.253Z" fill="#241143"/>
<path d="M507 331.118L510.729 331.097V320.323L507 320.148V331.118Z" fill="#241143"/>
<path d="M500.547 296.454L504.512 297.081V285.978L500.547 285.146V296.454Z" fill="#241143"/>
<path d="M500.547 313.842L504.512 314.14V303.048L500.547 302.544V313.842Z" fill="#241143"/>
<path d="M500.547 331.23L504.512 331.21V320.107L500.547 319.922V331.23Z" fill="#241143"/>
<path d="M490.656 294.913L494.97 295.591V283.985L490.656 283.092V294.913Z" fill="#241143"/>
<path d="M490.656 313.092L494.97 313.421V301.825L490.656 301.271V313.092Z" fill="#241143"/>
<path d="M490.656 331.282L494.97 331.262V319.656L490.656 319.45V331.282Z" fill="#241143"/>
<path d="M490.656 359.034L494.97 358.489V346.883L490.656 347.212V359.034Z" fill="#241143"/>
<path d="M490.656 377.223L494.97 376.33V364.724L490.656 365.402V377.223Z" fill="#241143"/>
<path d="M483.273 293.763L487.875 294.482V282.506L483.273 281.551V293.763Z" fill="#241143"/>
<path d="M483.273 312.538L487.875 312.887V300.922L483.273 300.336V312.538Z" fill="#241143"/>
<path d="M483.273 331.323L487.875 331.292V319.327L483.273 319.101V331.323Z" fill="#241143"/>
<path d="M483.273 359.978L487.875 359.393V347.427L483.273 347.776V359.978Z" fill="#241143"/>
<path d="M483.273 378.764L487.875 377.809V365.833L483.273 366.552V378.764Z" fill="#241143"/>
<path d="M507 356.743L510.729 356.271V345.497L507 345.774V356.743Z" fill="#241143"/>
<path d="M507 373.607L510.729 372.837V362.063L507 362.638V373.607Z" fill="#241143"/>
<path d="M500.547 357.647L504.512 357.144V346.042L500.547 346.339V357.647Z" fill="#241143"/>
<path d="M500.547 375.036L504.512 374.214V363.111L500.547 363.728V375.036Z" fill="#241143"/>
<path d="M394.17 421.788L278.141 452.857V1.73535L394.17 93.5558V421.788Z" fill="#E63114"/>
<path d="M394.17 102.635L278.141 14.1938V1.73535L394.17 93.5558V102.635Z" fill="#F45137"/>
<path d="M319.373 163.869L291.742 151.246V133.272L319.373 147.087V163.869Z" fill="#241143"/>
<path d="M355.93 180.569L333.414 170.278V154.112L355.93 165.369V180.569Z" fill="#241143"/>
<path d="M386.51 194.548L367.867 186.023V171.346L386.51 180.682V194.548Z" fill="#241143"/>
<path d="M319.373 135.655L291.742 121.019V103.035L319.373 118.873V135.655Z" fill="#241143"/>
<path d="M355.93 155.016L333.414 143.091V126.915L355.93 139.815V155.016Z" fill="#241143"/>
<path d="M386.51 171.222L367.867 161.352V146.665L386.51 157.357V171.222Z" fill="#241143"/>
<path d="M319.373 107.442L291.742 90.7824V72.8086L319.373 90.6591V107.442Z" fill="#241143"/>
<path d="M355.93 129.462L333.414 115.895V99.7183L355.93 114.262V129.462Z" fill="#241143"/>
<path d="M386.51 147.897L367.867 136.661V121.984L386.51 134.032V147.897Z" fill="#241143"/>
<path d="M319.373 79.2276L291.742 60.5553V42.5815L319.373 62.4349V79.2276Z" fill="#241143"/>
<path d="M355.93 103.908L333.414 88.6974V72.521L355.93 88.7077V103.908Z" fill="#241143"/>
<path d="M386.51 124.583L367.867 111.981V97.3042L386.51 110.708V124.583Z" fill="#241143"/>
<path d="M319.373 192.082L291.742 181.473V163.499L319.373 175.3V192.082Z" fill="#241143"/>
<path d="M355.93 206.123L333.414 197.475V181.298L355.93 190.922V206.123Z" fill="#241143"/>
<path d="M386.51 217.872L367.867 210.703V196.037L386.51 203.996V217.872Z" fill="#241143"/>
<path d="M319.373 220.306L291.742 211.71V193.726L319.373 203.514V220.306Z" fill="#241143"/>
<path d="M355.93 231.676L333.414 224.671V208.495L355.93 216.475V231.676Z" fill="#241143"/>
<path d="M386.51 241.197L367.867 235.394V220.717L386.51 227.331V241.197Z" fill="#241143"/>
<path d="M319.373 248.521L291.742 241.937V223.953L319.373 231.738V248.521Z" fill="#241143"/>
<path d="M355.93 257.231L333.414 251.869V235.693L355.93 242.03V257.231Z" fill="#241143"/>
<path d="M386.51 264.523L367.867 260.075V245.398L386.51 250.647V264.523Z" fill="#241143"/>
<path d="M319.373 276.734L291.742 272.163V254.179L319.373 259.951V276.734Z" fill="#241143"/>
<path d="M355.93 282.784L333.414 279.055V262.879L355.93 267.583V282.784Z" fill="#241143"/>
<path d="M386.51 287.847L367.867 284.755V270.079L386.51 273.971V287.847Z" fill="#241143"/>
<path d="M319.373 304.958L291.742 302.39V284.406L319.373 288.165V304.958Z" fill="#241143"/>
<path d="M355.93 308.337L333.414 306.252V290.076L355.93 293.136V308.337Z" fill="#241143"/>
<path d="M386.51 311.171L367.867 309.446V294.769L386.51 297.296V311.171Z" fill="#241143"/>
<path d="M319.373 333.161L291.742 332.617V314.633L319.373 316.379V333.161Z" fill="#241143"/>
<path d="M355.93 333.88L333.414 333.439V317.272L355.93 318.69V333.88Z" fill="#241143"/>
<path d="M386.51 337.167L367.867 336.797V322.12L386.51 323.301V337.167Z" fill="#241143"/>
<path d="M319.373 361.385L291.742 362.854V344.87L319.373 344.593V361.385Z" fill="#241143"/>
<path d="M355.93 359.444L333.414 360.636V344.459L355.93 344.244V359.444Z" fill="#241143"/>
<path d="M386.51 363.173L367.867 364.169V349.482L386.51 349.307V363.173Z" fill="#241143"/>
<path d="M319.373 387.134L291.742 390.442V372.468L319.373 370.362V387.134Z" fill="#241143"/>
<path d="M355.93 382.769L333.414 385.46V369.284L355.93 367.568V382.769Z" fill="#241143"/>
<path d="M386.51 423.77L367.867 428.7V379.575L386.51 378.157V423.77Z" fill="#241143"/>
<path d="M319.373 412.893L291.742 418.039V400.055L319.373 396.111V412.893Z" fill="#241143"/>
<path d="M355.93 406.094L333.414 410.284V394.108L355.93 390.893V406.094Z" fill="#241143"/>
<path d="M521.609 371.975V244.197L570.513 261.575V359.188L521.609 371.975Z" fill="#E63114"/>
<path d="M552.847 291.062L544.578 289.707V276.18L552.847 278.152V291.062Z" fill="#241143"/>
<path d="M552.847 306.303L544.578 305.687V292.171L552.847 293.403V306.303Z" fill="#241143"/>
<path d="M552.847 329.691L544.578 330.204V316.688L552.847 316.791V329.691Z" fill="#241143"/>
<path d="M552.846 363.8L539.688 367.251V340.454L552.846 338.924V363.8Z" fill="#241143"/>
<path d="M536.802 288.433L532.344 287.714V273.263L536.802 274.331V288.433Z" fill="#241143"/>
<path d="M536.802 305.113L532.344 304.784V290.333L536.802 291.011V305.113Z" fill="#241143"/>
<path d="M536.802 330.697L532.344 330.964V316.523L536.802 316.585V330.697Z" fill="#241143"/>
<path d="M560.848 292.613L555.25 291.452V278.737L560.848 280.381V292.613Z" fill="#241143"/>
<path d="M552.847 275.944L544.578 273.859V260.343L552.847 263.044V275.944Z" fill="#241143"/>
<path d="M536.802 271.918L532.344 270.788V256.337L536.802 257.806V271.918Z" fill="#241143"/>
<path d="M560.848 278.285L555.25 276.55V263.834L560.848 266.043V278.285Z" fill="#241143"/>
<path d="M560.848 306.838L555.25 306.479V293.764L560.848 294.606V306.838Z" fill="#241143"/>
<path d="M560.848 329.269L555.25 329.547V316.821L560.848 317.037V329.269Z" fill="#241143"/>
<path d="M536.802 348.136L532.344 348.825V334.384L536.802 334.024V348.136Z" fill="#241143"/>
<path d="M560.848 344.398L555.25 345.271V332.556L560.848 332.166V344.398Z" fill="#241143"/>
<path d="M568.402 293.599L562.547 292.644V280.473L568.402 281.87V293.599Z" fill="#241143"/>
<path d="M568.402 279.857L562.547 278.388V266.217L568.402 268.128V279.857Z" fill="#241143"/>
<path d="M568.402 307.454L562.547 307.022V294.852L568.402 295.725V307.454Z" fill="#241143"/>
<path d="M568.402 328.725L562.547 329.084V316.924L568.402 316.996V328.725Z" fill="#241143"/>
<path d="M568.402 343.227L562.547 344.131V331.97L568.402 331.498V343.227Z" fill="#241143"/>
<path d="M529.475 287.847L524.719 287.066V272.164L529.475 273.293V287.847Z" fill="#241143"/>
<path d="M529.475 270.798L524.719 269.607V254.694L529.475 256.245V270.798Z" fill="#241143"/>
<path d="M529.475 305.051L524.719 304.702V289.789L529.475 290.497V305.051Z" fill="#241143"/>
<path d="M529.475 331.436L524.719 331.734V316.821L529.475 316.882V331.436Z" fill="#241143"/>
<path d="M529.475 349.431L524.719 350.17V335.257L529.475 334.887V349.431Z" fill="#241143"/>
<path d="M117.6 377.316L71.9531 389.251V282.445L117.6 291.442V377.316Z" fill="#E63114"/>
<path d="M79.1172 392.639L150.978 411.425V229.869L79.1172 253.491V392.639Z" fill="#AE2812"/>
<path d="M222.845 392.639L150.984 411.425V229.869L222.845 253.491V392.639Z" fill="#E63114"/>
<path d="M67.3271 361.17L20.2109 373.084V229.417L67.3271 252.999V361.17Z" fill="#E63114"/>
<path d="M139 261.544L146.786 259.716V243.745L139 245.994V261.544Z" fill="#241143"/>
<path d="M126.984 264.471L134.144 262.797V247.494L126.984 249.548V264.471Z" fill="#241143"/>
<path d="M99.0391 271.034L117.857 266.618V252.177L99.0391 257.58V271.034Z" fill="#241143"/>
<path d="M139 291.4L146.786 290.353V274.382L139 275.83V291.4Z" fill="#241143"/>
<path d="M139 315.312L146.786 314.901V298.93L139 299.762V315.312Z" fill="#241143"/>
<path d="M139 339.242L146.786 339.457V323.486L139 323.681V339.242Z" fill="#241143"/>
<path d="M126.984 293.106L134.144 292.151V276.848L126.984 278.183V293.106Z" fill="#241143"/>
<path d="M126.984 316.061L134.144 315.681V300.377L126.984 301.137V316.061Z" fill="#241143"/>
<path d="M126.984 339.016L134.144 339.212V323.908L126.984 324.083V339.016Z" fill="#241143"/>
<path d="M99.0391 296.845L117.857 294.339V279.888L99.0391 283.39V296.845Z" fill="#241143"/>
<path d="M99.0391 317.54L117.857 316.544V302.103L99.0391 304.085V317.54Z" fill="#241143"/>
<path d="M99.0391 338.225L117.857 338.76V324.309L99.0391 324.771V338.225Z" fill="#241143"/>
<path d="M99.0391 364.19L117.857 366.634V352.184L99.0391 350.735V364.19Z" fill="#241143"/>
<path d="M99.0391 384.875L117.857 388.839V374.398L99.0391 371.42V384.875Z" fill="#241143"/>
<path d="M139 369.088L146.786 370.095V354.124L139 353.528V369.088Z" fill="#241143"/>
<path d="M139 393.009L146.786 394.653V378.671L139 377.449V393.009Z" fill="#241143"/>
<path d="M126.984 367.65L134.144 368.575V353.261L126.984 352.717V367.65Z" fill="#241143"/>
<path d="M126.984 390.606L134.144 392.105V376.802L126.984 375.672V390.606Z" fill="#241143"/>
<path d="M90.8906 272.945L96.3243 271.671V258.36L90.8906 259.921V272.945Z" fill="#241143"/>
<path d="M90.8906 297.933L96.3243 297.214V283.893L90.8906 284.91V297.933Z" fill="#241143"/>
<path d="M90.8906 317.972L96.3243 317.674V304.363L90.8906 304.938V317.972Z" fill="#241143"/>
<path d="M90.8906 338L96.3243 338.154V324.843L90.8906 324.966V338Z" fill="#241143"/>
<path d="M90.8906 362.988L96.3243 363.686V350.375L90.8906 349.954V362.988Z" fill="#241143"/>
<path d="M90.8906 383.016L96.3243 384.156V370.835L90.8906 369.982V383.016Z" fill="#241143"/>
<path d="M81.7734 275.081L86.8271 273.899V261.092L81.7734 262.54V275.081Z" fill="#241143"/>
<path d="M81.7734 299.155L86.8271 298.478V285.67L81.7734 286.605V299.155Z" fill="#241143"/>
<path d="M81.7734 318.444L86.8271 318.187V305.369L81.7734 305.903V318.444Z" fill="#241143"/>
<path d="M81.7734 337.742L86.8271 337.886V325.068L81.7734 325.191V337.742Z" fill="#241143"/>
<path d="M81.7734 361.807L86.8271 362.465V349.647L81.7734 349.256V361.807Z" fill="#241143"/>
<path d="M81.7734 381.095L86.8271 382.163V369.346L81.7734 368.555V381.095Z" fill="#241143"/>
<path d="M26.3047 377.316L71.952 389.251V282.445L26.3047 291.442V377.316Z" fill="#AE2812"/>
<path d="M34.9297 369.634L54.7129 373.803V364.817L34.9297 361.468V369.634Z" fill="#241143"/>
<path d="M28.0781 368.185L32.7517 369.171V361.109L28.0781 360.318V368.185Z" fill="#241143"/>
<path d="M57.9219 374.348L69.6419 376.813V367.2L57.9219 365.228V374.348Z" fill="#241143"/>
<path d="M34.9297 353.765L54.7129 356.333V347.346L34.9297 345.61V353.765Z" fill="#241143"/>
<path d="M28.0781 352.882L32.7517 353.478V345.415L28.0781 345.004V352.882Z" fill="#241143"/>
<path d="M57.9219 356.62L69.6419 358.141V348.527L57.9219 347.5V356.62Z" fill="#241143"/>
<path d="M34.9297 337.897L54.7129 338.873V329.886L34.9297 329.742V337.897Z" fill="#241143"/>
<path d="M28.0781 337.568L32.7517 337.804V329.732L28.0781 329.69V337.568Z" fill="#241143"/>
<path d="M57.9219 338.904L69.6419 339.469V329.855L57.9219 329.783V338.904Z" fill="#241143"/>
<path d="M34.9297 322.039L54.7129 321.413V312.426L34.9297 313.884V322.039Z" fill="#241143"/>
<path d="M28.0781 322.265L32.7517 322.111V314.048L28.0781 314.387V322.265Z" fill="#241143"/>
<path d="M57.9219 321.177L69.6419 320.797V311.183L57.9219 312.056V321.177Z" fill="#241143"/>
<path d="M34.9297 306.181L54.7129 303.942V294.955L34.9297 298.016V306.181Z" fill="#241143"/>
<path d="M28.0781 306.952L32.7517 306.428V298.355L28.0781 299.074V306.952Z" fill="#241143"/>
<path d="M57.9219 303.459L69.6419 302.113V292.51L57.9219 294.328V303.459Z" fill="#241143"/>
<path d="M0 367.805L20.2147 373.084V229.417L0 239.852V367.805Z" fill="#AE2812"/>
<path d="M15.8203 245.203L18.6964 243.94V234.286L15.8203 235.713V245.203Z" fill="#241143"/>
<path d="M15.8203 259.809L18.6964 258.781V249.127L15.8203 250.308V259.809Z" fill="#241143"/>
<path d="M15.8203 274.424L18.6964 273.623V263.968L15.8203 264.923V274.424Z" fill="#241143"/>
<path d="M11.2734 247.278L13.9954 246.076V236.678L11.2734 238.024V247.278Z" fill="#241143"/>
<path d="M11.2734 261.514L13.9954 260.538V251.13L11.2734 252.26V261.514Z" fill="#241143"/>
<path d="M11.2734 275.759L13.9954 274.989V265.591L11.2734 266.495V275.759Z" fill="#241143"/>
<path d="M5.17969 249.969L7.71679 248.85V239.771L5.17969 241.024V249.969Z" fill="#241143"/>
<path d="M5.17969 263.711L7.71679 262.797V253.718L5.17969 254.765V263.711Z" fill="#241143"/>
<path d="M5.17969 277.454L7.71679 276.745V267.676L5.17969 268.518V277.454Z" fill="#241143"/>
<path d="M1.20312 251.715L3.62724 250.647V241.793L1.20312 242.985V251.715Z" fill="#241143"/>
<path d="M1.20312 265.139L3.62724 264.266V255.413L1.20312 256.409V265.139Z" fill="#241143"/>
<path d="M1.20312 278.562L3.62724 277.885V269.031L1.20312 269.832V278.562Z" fill="#241143"/>
<path d="M15.8203 296.608L18.6964 296.156V286.512L15.8203 287.107V296.608Z" fill="#241143"/>
<path d="M15.8203 311.213L18.6964 310.997V301.343L15.8203 301.713V311.213Z" fill="#241143"/>
<path d="M15.8203 325.818L18.6964 325.828V316.184L15.8203 316.318V325.818Z" fill="#241143"/>
<path d="M11.2734 297.389L13.9954 296.957V287.56L11.2734 288.124V297.389Z" fill="#241143"/>
<path d="M11.2734 311.624L13.9954 311.419V302.021L11.2734 302.36V311.624Z" fill="#241143"/>
<path d="M11.2734 325.859L13.9954 325.88V316.472L11.2734 316.595V325.859Z" fill="#241143"/>
<path d="M5.17969 298.334L7.71679 297.933V288.864L5.17969 289.398V298.334Z" fill="#241143"/>
<path d="M5.17969 312.076L7.71679 311.891V302.812L5.17969 303.141V312.076Z" fill="#241143"/>
<path d="M5.17969 325.819L7.71679 325.839V316.76L5.17969 316.883V325.819Z" fill="#241143"/>
<path d="M5.17969 346.802L7.71679 347.13V338.051L5.17969 337.856V346.802Z" fill="#241143"/>
<path d="M5.17969 360.544L7.71679 361.078V352.009L5.17969 351.608V360.544Z" fill="#241143"/>
<path d="M1.20312 298.95L3.62724 298.57V289.717L1.20312 290.22V298.95Z" fill="#241143"/>
<path d="M1.20312 312.374L3.62724 312.189V303.336L1.20312 303.644V312.374Z" fill="#241143"/>
<path d="M1.20312 325.798L3.62724 325.808V316.955L1.20312 317.068V325.798Z" fill="#241143"/>
<path d="M1.20312 346.277L3.62724 346.596V337.742L1.20312 337.547V346.277Z" fill="#241143"/>
<path d="M1.20312 359.701L3.62724 360.215V351.361L1.20312 350.981V359.701Z" fill="#241143"/>
<path d="M15.8203 348.003L18.6964 348.383V338.729L15.8203 338.513V348.003Z" fill="#241143"/>
<path d="M15.8203 362.608L18.6964 363.214V353.57L15.8203 353.118V362.608Z" fill="#241143"/>
<path d="M11.2734 347.49L13.9954 347.839V338.441L11.2734 338.226V347.49Z" fill="#241143"/>
<path d="M11.2734 361.725L13.9954 362.3V352.892L11.2734 352.46V361.725Z" fill="#241143"/>
<path d="M278.14 452.857L161.68 422.404V92.991L278.14 0.492676V452.857Z" fill="#AE2812"/>
<path d="M278.14 13.0127L161.68 102.091V92.991L278.14 0.492676V13.0127Z" fill="#E63114"/>
<path d="M188.056 185.767L169.352 194.333V180.416L188.056 171.039V185.767Z" fill="#241143"/>
<path d="M222.135 170.156L199.609 180.478V165.236L222.135 153.928V170.156Z" fill="#241143"/>
<path d="M264.465 150.754L236.711 163.48V146.615L264.465 132.698V150.754Z" fill="#241143"/>
<path d="M188.056 160.984L169.352 170.926V157.009L188.056 146.256V160.984Z" fill="#241143"/>
<path d="M222.135 142.877L199.609 154.852V139.611L222.135 126.659V142.877Z" fill="#241143"/>
<path d="M264.465 120.384L236.711 135.132V118.268L264.465 102.317V120.384Z" fill="#241143"/>
<path d="M188.056 136.21L169.352 147.518V133.591L188.056 121.472V136.21Z" fill="#241143"/>
<path d="M222.135 115.597L199.609 129.226V113.984L222.135 99.3794V115.597Z" fill="#241143"/>
<path d="M264.465 90.0023L236.711 106.785V89.9304L264.465 71.9463V90.0023Z" fill="#241143"/>
<path d="M188.056 111.427L169.352 124.102V110.185L188.056 96.689V111.427Z" fill="#241143"/>
<path d="M222.135 88.3288L199.609 103.601V88.3597L222.135 72.1011V88.3288Z" fill="#241143"/>
<path d="M264.465 59.6321L236.711 78.4481V61.5836L264.465 41.5659V59.6321Z" fill="#241143"/>
<path d="M188.056 210.551L169.352 217.75V203.823L188.056 195.812V210.551Z" fill="#241143"/>
<path d="M222.135 197.425L199.609 206.103V190.862L222.135 181.207V197.425Z" fill="#241143"/>
<path d="M264.465 181.135L236.711 191.817V174.962L264.465 163.069V181.135Z" fill="#241143"/>
<path d="M188.056 235.333L169.352 241.167V227.24L188.056 220.595V235.333Z" fill="#241143"/>
<path d="M222.135 224.713L199.609 231.728V216.486L222.135 208.485V224.713Z" fill="#241143"/>
<path d="M264.465 211.515L236.711 220.163V203.309L264.465 193.439V211.515Z" fill="#241143"/>
<path d="M188.056 260.106L169.352 264.574V250.647L188.056 245.368V260.106Z" fill="#241143"/>
<path d="M222.135 251.983L199.609 257.365V242.112L222.135 235.755V251.983Z" fill="#241143"/>
<path d="M264.465 241.886L236.711 248.511V231.646L264.465 223.82V241.886Z" fill="#241143"/>
<path d="M188.056 284.89L169.352 287.981V274.054L188.056 270.151V284.89Z" fill="#241143"/>
<path d="M222.135 279.262L199.609 282.98V267.738L222.135 263.034V279.262Z" fill="#241143"/>
<path d="M264.465 272.257L236.711 276.848V259.994L264.465 254.191V272.257Z" fill="#241143"/>
<path d="M188.056 309.673L169.352 311.398V297.471L188.056 294.934V309.673Z" fill="#241143"/>
<path d="M222.135 306.54L199.609 308.605V293.363L222.135 290.312V306.54Z" fill="#241143"/>
<path d="M264.465 302.638L236.711 305.195V288.33L264.465 284.571V302.638Z" fill="#241143"/>
<path d="M188.056 334.446L169.352 334.806V320.879L188.056 319.718V334.446Z" fill="#241143"/>
<path d="M222.135 333.81L199.609 334.231V318.999L222.135 317.592V333.81Z" fill="#241143"/>
<path d="M264.465 333.009L236.711 333.532V316.678L264.465 314.942V333.009Z" fill="#241143"/>
<path d="M188.056 359.229L169.352 358.212V344.285L188.056 344.491V359.229Z" fill="#241143"/>
<path d="M222.135 361.088L199.609 359.866V344.614L222.135 344.86V361.088Z" fill="#241143"/>
<path d="M264.465 363.388L236.711 361.879V345.024L264.465 345.322V363.388Z" fill="#241143"/>
<path d="M264.465 392.578L236.711 389.282V372.417L264.465 374.502V392.578Z" fill="#241143"/>
<path d="M264.465 419.97L236.711 413.992V397.138L264.465 401.904V419.97Z" fill="#241143"/>
<path d="M188.056 381.856L169.352 379.586V365.659L188.056 367.118V381.856Z" fill="#241143"/>
<path d="M222.135 385.985L199.609 383.253V368.011L222.135 369.767V385.985Z" fill="#241143"/>
<path d="M188.056 404.472L169.352 400.96V387.033L188.056 389.734V404.472Z" fill="#241143"/>
<path d="M222.135 410.882L199.609 406.64V391.408L222.135 394.664V410.882Z" fill="#241143"/>
</svg>
